<svg xmlns="http://www.w3.org/2000/svg" viewBox="0 0 64 64">
  <rect width="64" height="64" rx="18" fill="#020617"/>
  <path d="M18 17.5c0-2.2 1.8-4 4-4h8c3.4 0 6.3 1.7 8 4.2 1.7-2.5 4.6-4.2 8-4.2h2c2.2 0 4 1.8 4 4v30c0 1.1-.9 2-2 2h-5.8c-2.9 0-5.6 1.2-7.4 3.4-.4.5-1.2.5-1.6 0-1.8-2.2-4.5-3.4-7.4-3.4H22c-2.2 0-4-1.8-4-4v-28Z" fill="#f8fafc"/>
  <path d="M22 18.5c0-.6.4-1 1-1h7c3.3 0 6 2.7 6 6v22.2c-2.2-1.4-4.8-2.2-7.5-2.2H23c-.6 0-1-.4-1-1v-24Zm20 5c0-3.3 2.7-6 6-6h1c.6 0 1 .4 1 1v24c0 .6-.4 1-1 1h-4.5c-2.7 0-5.3.8-7.5 2.2V23.5Z" fill="#0f766e"/>
  <path d="M25.5 24.5h6m-6 6h6m-6 6h6m12-12h3m-3 6h3m-3 6h3" stroke="#f8fafc" stroke-width="3" stroke-linecap="round"/>
</svg>
