<svg xmlns="http://www.w3.org/2000/svg" viewBox="0 0 360 220" role="img" aria-labelledby="title desc">
  <title id="title">Matrix reasoning prompt</title>
  <desc id="desc">Matriks tiga kali tiga dengan pola segitiga dan lingkaran, satu kotak kosong.</desc>
  <rect width="360" height="220" rx="24" fill="#f8fafc"/>
  <g transform="translate(45 28)">
    <rect width="270" height="164" rx="18" fill="#e2e8f0"/>
    <g fill="#ffffff" stroke="#cbd5e1" stroke-width="2">
      <rect x="12" y="12" width="76" height="44" rx="10"/>
      <rect x="97" y="12" width="76" height="44" rx="10"/>
      <rect x="182" y="12" width="76" height="44" rx="10"/>
      <rect x="12" y="60" width="76" height="44" rx="10"/>
      <rect x="97" y="60" width="76" height="44" rx="10"/>
      <rect x="182" y="60" width="76" height="44" rx="10"/>
      <rect x="12" y="108" width="76" height="44" rx="10"/>
      <rect x="97" y="108" width="76" height="44" rx="10" fill="#eff6ff" stroke-dasharray="6 6"/>
      <rect x="182" y="108" width="76" height="44" rx="10"/>
    </g>
    <polygon points="50,20 34,46 66,46" fill="#f97316"/>
    <circle cx="135" cy="34" r="14" fill="#0ea5e9"/>
    <polygon points="220,20 204,46 236,46" fill="#f97316"/>
    <circle cx="50" cy="82" r="14" fill="#0ea5e9"/>
    <polygon points="135,68 119,94 151,94" fill="#f97316"/>
    <circle cx="220" cy="82" r="14" fill="#0ea5e9"/>
    <polygon points="50,116 34,142 66,142" fill="#f97316"/>
    <polygon points="220,116 204,142 236,142" fill="#f97316"/>
    <text x="135" y="137" text-anchor="middle" font-family="Arial, sans-serif" font-size="28" fill="#94a3b8">?</text>
  </g>
</svg>
